<svg version="1.1" id="Layer_1" xmlns="http://www.w3.org/2000/svg" x="0" y="0" viewBox="0 0 400 150" style="enable-background:new 0 0 400 150" xml:space="preserve"><style>.st0,.st1{opacity:.5;fill:none;stroke:#bdbec0;stroke-width:.25;stroke-miterlimit:10}.st1{stroke-dasharray:1,1}</style><path class="st0" d="M249.3 66.8h6v6h-6zM193.7 138.5h6v6h-6zM226.9 89.1h6v6h-6zM268.8 83.7h6v6h-6zM254.9 129.5h6v6h-6zM222.4 116.4h6v6h-6zM265.3 107.9h6v6h-6z"/><path class="st1" d="m200.6 141.5 24.8-18.5M226 115.4l3.4-18.7M229.3 118.4l39-31.7M229.4 119.8l35.9-8.9M234.4 91.7l17.5-18.9M200.6 142.4l53.7-9.2"/><path class="st0" d="M128 124.2h6v6h-6zM51.1 134.9h6v6h-6zM281.7 27.2h6v6h-6zM293.1 46.2h6v6h-6z"/><path class="st1" d="m135.4 127.2 57.5 14.7M57.1 138.2 127 127M256.4 68.6l25.2-38.4M256.4 70.3l35.5-21.1"/><path class="st0" d="M325.7 5.6h6v6h-6zM343 28.6h6v6h-6z"/><path class="st1" d="m300.4 47 25.2-38.4M300.4 48.7l41.5-17.1"/></svg>