<svg version="1.1" id="Layer_1" xmlns="http://www.w3.org/2000/svg" x="0" y="0" viewBox="0 0 400 150" style="enable-background:new 0 0 400 150" xml:space="preserve"><style>.st0,.st1{opacity:.8;fill:none;stroke:#888;stroke-width:.5;stroke-miterlimit:10;enable-background:new}.st1{stroke-width:.25;stroke-dasharray:1,1}</style><path class="st0" d="M180.1 70h4.7v4.7h-4.7zM136.1 126.8h4.7v4.7h-4.7zM162.4 87.7h4.7v4.7h-4.7zM195.5 83.4h4.7v4.7h-4.7zM184.5 119.6h4.7v4.7h-4.7zM158.8 109.3h4.7v4.7h-4.7zM192.8 102.5h4.7v4.7h-4.7z"/><path class="st1" d="m141.6 129.1 19.6-14.6M161.7 108.5l2.7-14.8M164.3 110.8l30.8-25M164.4 112l28.4-7.1M168.3 89.7l13.9-14.9M141.6 129.8l42.5-7.2"/><path class="st0" d="M84.1 115.4h4.7v4.7h-4.7zM23.3 123.9H28v4.7h-4.7zM205.8 38.7h4.7v4.7h-4.7zM214.8 53.7h4.7v4.7h-4.7z"/><path class="st1" d="m90 117.8 45.5 11.6M28 126.5l55.3-8.8M185.7 71.4l20-30.3M185.7 72.8l28.1-16.7"/><path class="st0" d="M240.6 21.6h4.7v4.7h-4.7zM254.3 39.8h4.7v4.7h-4.7z"/><path class="st1" d="m220.5 55.4 20-31.4M220.5 55.7l32.9-13.5"/><path class="st0" d="M354.4 6.9h4.7v4.7h-4.7zM386.4 13.8h4.7v4.7h-4.7z"/><path class="st1" d="m246.3 24.3 139.1-7.8M245.3 23.9l109-14.6"/><path class="st0" d="M377.1 31.9h4.7v4.7h-4.7zM365.4 47.8h4.7v4.7h-4.7z"/><path class="st1" d="m259.9 42.2 117.2-7.9M259.9 42.2l104.5 7.6"/></svg>