<svg version="1.1" id="Layer_1" xmlns="http://www.w3.org/2000/svg" x="0" y="0" viewBox="0 0 600 320" style="enable-background:new 0 0 600 320" xml:space="preserve"><style>.st0,.st1{opacity:.6;fill:none;stroke:#888;stroke-width:.5;stroke-miterlimit:10;enable-background:new}.st1{stroke-width:.25;stroke-dasharray:1,1}</style><path class="st0" d="M273 160.8h4.7v4.7H273zM229 217.6h4.7v4.7H229zM255.3 178.5h4.7v4.7h-4.7zM288.4 174.2h4.7v4.7h-4.7zM277.4 210.4h4.7v4.7h-4.7zM251.7 200.1h4.7v4.7h-4.7zM285.7 193.3h4.7v4.7h-4.7z"/><path class="st1" d="m234.5 219.9 19.6-14.6M254.6 199.3l2.7-14.8M257.2 201.6l30.8-25M257.3 202.8l28.4-7.1M261.2 180.5l13.9-14.9M234.5 220.6l42.5-7.2"/><path class="st0" d="M177 206.2h4.7v4.7H177zM116.2 214.7h4.7v4.7h-4.7zM298.7 129.5h4.7v4.7h-4.7zM307.7 144.5h4.7v4.7h-4.7z"/><path class="st1" d="m182.9 208.6 45.5 11.6M120.9 217.3l55.3-8.8M278.6 162.2l20-30.3M278.6 163.6l28.1-16.7"/><path class="st0" d="M333.5 112.4h4.7v4.7h-4.7zM347.2 130.6h4.7v4.7h-4.7z"/><path class="st1" d="m313.4 146.2 20-31.4M313.4 146.5l32.9-13.5"/><path class="st0" d="M447.3 97.7h4.7v4.7h-4.7zM479.3 104.6h4.7v4.7h-4.7z"/><path class="st1" d="m339.2 115.1 139.1-7.8M338.2 114.7l109-14.6"/><path class="st0" d="M470 122.7h4.7v4.7H470zM458.3 138.6h4.7v4.7h-4.7z"/><path class="st1" d="m352.8 133 117.2-7.9M352.8 133l104.5 7.6"/></svg>